<mxfile host="app.diagrams.net" modified="2024-11-14T15:54:21.558Z" agent="Mozilla/5.0 (Windows NT 10.0; Win64; x64) AppleWebKit/537.36 (KHTML, like Gecko) Chrome/130.0.0.0 Safari/537.36" etag="CodgiVmYh4ng6g0E5EWI" version="24.4.13" type="github">
  <diagram name="Страница — 1" id="MnqRbCTAZW6nNjorJu6J">
    <mxGraphModel dx="1271" dy="711" grid="1" gridSize="10" guides="1" tooltips="1" connect="1" arrows="1" fold="1" page="1" pageScale="1" pageWidth="827" pageHeight="1169" math="0" shadow="0">
      <root>
        <mxCell id="0" />
        <mxCell id="1" parent="0" />
        <mxCell id="LgHQ-KVYW7qDHZazof08-20" value="" style="rounded=0;whiteSpace=wrap;html=1;fillColor=none;" vertex="1" parent="1">
          <mxGeometry x="20" y="520" width="300" height="190" as="geometry" />
        </mxCell>
        <mxCell id="LgHQ-KVYW7qDHZazof08-27" value="" style="rounded=0;whiteSpace=wrap;html=1;fillColor=none;" vertex="1" parent="1">
          <mxGeometry x="360" y="32" width="300" height="170" as="geometry" />
        </mxCell>
        <mxCell id="LgHQ-KVYW7qDHZazof08-13" value="" style="rounded=0;whiteSpace=wrap;html=1;fillColor=none;" vertex="1" parent="1">
          <mxGeometry x="20" y="240" width="300" height="240" as="geometry" />
        </mxCell>
        <mxCell id="LgHQ-KVYW7qDHZazof08-1" value="Профиль" style="rounded=0;whiteSpace=wrap;html=1;" vertex="1" parent="1">
          <mxGeometry x="40" y="122" width="130" height="60" as="geometry" />
        </mxCell>
        <mxCell id="LgHQ-KVYW7qDHZazof08-2" value="Игроки" style="rounded=0;whiteSpace=wrap;html=1;" vertex="1" parent="1">
          <mxGeometry x="40" y="62" width="130" height="60" as="geometry" />
        </mxCell>
        <mxCell id="LgHQ-KVYW7qDHZazof08-3" value="Голосование" style="rounded=0;whiteSpace=wrap;html=1;" vertex="1" parent="1">
          <mxGeometry x="170" y="62" width="130" height="60" as="geometry" />
        </mxCell>
        <mxCell id="LgHQ-KVYW7qDHZazof08-4" value="admin" style="text;html=1;align=center;verticalAlign=middle;resizable=0;points=[];autosize=1;strokeColor=none;fillColor=none;" vertex="1" parent="1">
          <mxGeometry x="240" y="32" width="60" height="30" as="geometry" />
        </mxCell>
        <mxCell id="LgHQ-KVYW7qDHZazof08-5" value="Бункер" style="rounded=0;whiteSpace=wrap;html=1;" vertex="1" parent="1">
          <mxGeometry x="170" y="122" width="130" height="60" as="geometry" />
        </mxCell>
        <mxCell id="LgHQ-KVYW7qDHZazof08-6" value="game_menu" style="text;html=1;align=center;verticalAlign=middle;resizable=0;points=[];autosize=1;strokeColor=none;fillColor=none;" vertex="1" parent="1">
          <mxGeometry x="125" y="30" width="90" height="30" as="geometry" />
        </mxCell>
        <mxCell id="LgHQ-KVYW7qDHZazof08-7" value="profile_button" style="text;html=1;align=center;verticalAlign=middle;resizable=0;points=[];autosize=1;strokeColor=none;fillColor=none;" vertex="1" parent="1">
          <mxGeometry x="120" y="240" width="100" height="30" as="geometry" />
        </mxCell>
        <mxCell id="LgHQ-KVYW7qDHZazof08-8" value="any" style="text;html=1;align=center;verticalAlign=middle;resizable=0;points=[];autosize=1;strokeColor=none;fillColor=none;" vertex="1" parent="1">
          <mxGeometry x="250" y="240" width="40" height="30" as="geometry" />
        </mxCell>
        <mxCell id="LgHQ-KVYW7qDHZazof08-9" value="Вывод характеристик пользователя" style="shape=parallelogram;perimeter=parallelogramPerimeter;whiteSpace=wrap;html=1;fixedSize=1;" vertex="1" parent="1">
          <mxGeometry x="110" y="290" width="120" height="60" as="geometry" />
        </mxCell>
        <mxCell id="LgHQ-KVYW7qDHZazof08-10" value="Назад" style="rounded=0;whiteSpace=wrap;html=1;" vertex="1" parent="1">
          <mxGeometry x="40" y="400" width="130" height="60" as="geometry" />
        </mxCell>
        <mxCell id="LgHQ-KVYW7qDHZazof08-11" value="Раскрыть характеристику" style="rounded=0;whiteSpace=wrap;html=1;" vertex="1" parent="1">
          <mxGeometry x="170" y="400" width="130" height="60" as="geometry" />
        </mxCell>
        <mxCell id="LgHQ-KVYW7qDHZazof08-12" value="" style="rounded=0;whiteSpace=wrap;html=1;fillColor=none;" vertex="1" parent="1">
          <mxGeometry x="20" y="32" width="300" height="170" as="geometry" />
        </mxCell>
        <mxCell id="LgHQ-KVYW7qDHZazof08-14" value="reveal_atribute button" style="text;html=1;align=center;verticalAlign=middle;resizable=0;points=[];autosize=1;strokeColor=none;fillColor=none;" vertex="1" parent="1">
          <mxGeometry x="95" y="520" width="140" height="30" as="geometry" />
        </mxCell>
        <mxCell id="LgHQ-KVYW7qDHZazof08-15" value="any" style="text;html=1;align=center;verticalAlign=middle;resizable=0;points=[];autosize=1;strokeColor=none;fillColor=none;" vertex="1" parent="1">
          <mxGeometry x="245" y="520" width="40" height="30" as="geometry" />
        </mxCell>
        <mxCell id="LgHQ-KVYW7qDHZazof08-16" value="Назад" style="rounded=0;whiteSpace=wrap;html=1;" vertex="1" parent="1">
          <mxGeometry x="40" y="570" width="130" height="60" as="geometry" />
        </mxCell>
        <mxCell id="LgHQ-KVYW7qDHZazof08-17" value="Атрибут 1" style="rounded=0;whiteSpace=wrap;html=1;" vertex="1" parent="1">
          <mxGeometry x="170" y="570" width="130" height="60" as="geometry" />
        </mxCell>
        <mxCell id="LgHQ-KVYW7qDHZazof08-18" value="Атрибут 2" style="rounded=0;whiteSpace=wrap;html=1;" vertex="1" parent="1">
          <mxGeometry x="40" y="630" width="130" height="60" as="geometry" />
        </mxCell>
        <mxCell id="LgHQ-KVYW7qDHZazof08-19" value="Атрибут 3" style="rounded=0;whiteSpace=wrap;html=1;" vertex="1" parent="1">
          <mxGeometry x="170" y="630" width="130" height="60" as="geometry" />
        </mxCell>
        <mxCell id="LgHQ-KVYW7qDHZazof08-21" value="Профиль" style="rounded=0;whiteSpace=wrap;html=1;" vertex="1" parent="1">
          <mxGeometry x="380" y="122" width="130" height="60" as="geometry" />
        </mxCell>
        <mxCell id="LgHQ-KVYW7qDHZazof08-22" value="Игроки" style="rounded=0;whiteSpace=wrap;html=1;" vertex="1" parent="1">
          <mxGeometry x="380" y="62" width="260" height="60" as="geometry" />
        </mxCell>
        <mxCell id="LgHQ-KVYW7qDHZazof08-24" value="default_player" style="text;html=1;align=center;verticalAlign=middle;resizable=0;points=[];autosize=1;strokeColor=none;fillColor=none;" vertex="1" parent="1">
          <mxGeometry x="560" y="32" width="100" height="30" as="geometry" />
        </mxCell>
        <mxCell id="LgHQ-KVYW7qDHZazof08-25" value="Бункер" style="rounded=0;whiteSpace=wrap;html=1;" vertex="1" parent="1">
          <mxGeometry x="510" y="122" width="130" height="60" as="geometry" />
        </mxCell>
        <mxCell id="LgHQ-KVYW7qDHZazof08-26" value="game_menu" style="text;html=1;align=center;verticalAlign=middle;resizable=0;points=[];autosize=1;strokeColor=none;fillColor=none;" vertex="1" parent="1">
          <mxGeometry x="465" y="30" width="90" height="30" as="geometry" />
        </mxCell>
        <mxCell id="LgHQ-KVYW7qDHZazof08-28" value="" style="rounded=0;whiteSpace=wrap;html=1;fillColor=none;" vertex="1" parent="1">
          <mxGeometry x="360" y="240" width="300" height="130" as="geometry" />
        </mxCell>
        <mxCell id="LgHQ-KVYW7qDHZazof08-29" value="bunker_button" style="text;html=1;align=center;verticalAlign=middle;resizable=0;points=[];autosize=1;strokeColor=none;fillColor=none;" vertex="1" parent="1">
          <mxGeometry x="460" y="240" width="100" height="30" as="geometry" />
        </mxCell>
        <mxCell id="LgHQ-KVYW7qDHZazof08-30" value="any" style="text;html=1;align=center;verticalAlign=middle;resizable=0;points=[];autosize=1;strokeColor=none;fillColor=none;" vertex="1" parent="1">
          <mxGeometry x="590" y="240" width="40" height="30" as="geometry" />
        </mxCell>
        <mxCell id="LgHQ-KVYW7qDHZazof08-31" value="Вывод характеристик бункера" style="shape=parallelogram;perimeter=parallelogramPerimeter;whiteSpace=wrap;html=1;fixedSize=1;" vertex="1" parent="1">
          <mxGeometry x="450" y="290" width="120" height="60" as="geometry" />
        </mxCell>
        <mxCell id="LgHQ-KVYW7qDHZazof08-34" value="" style="rounded=0;whiteSpace=wrap;html=1;fillColor=none;" vertex="1" parent="1">
          <mxGeometry x="360" y="410" width="300" height="190" as="geometry" />
        </mxCell>
        <mxCell id="LgHQ-KVYW7qDHZazof08-35" value="vote_menu" style="text;html=1;align=center;verticalAlign=middle;resizable=0;points=[];autosize=1;strokeColor=none;fillColor=none;" vertex="1" parent="1">
          <mxGeometry x="470" y="410" width="80" height="30" as="geometry" />
        </mxCell>
        <mxCell id="LgHQ-KVYW7qDHZazof08-36" value="admin" style="text;html=1;align=center;verticalAlign=middle;resizable=0;points=[];autosize=1;strokeColor=none;fillColor=none;" vertex="1" parent="1">
          <mxGeometry x="580" y="410" width="60" height="30" as="geometry" />
        </mxCell>
        <mxCell id="LgHQ-KVYW7qDHZazof08-38" value="Назад" style="rounded=0;whiteSpace=wrap;html=1;" vertex="1" parent="1">
          <mxGeometry x="380" y="460" width="130" height="60" as="geometry" />
        </mxCell>
        <mxCell id="LgHQ-KVYW7qDHZazof08-39" value="Провести голосование" style="rounded=0;whiteSpace=wrap;html=1;" vertex="1" parent="1">
          <mxGeometry x="380" y="520" width="260" height="60" as="geometry" />
        </mxCell>
        <mxCell id="LgHQ-KVYW7qDHZazof08-40" value="Результат голосования" style="rounded=0;whiteSpace=wrap;html=1;" vertex="1" parent="1">
          <mxGeometry x="510" y="460" width="130" height="60" as="geometry" />
        </mxCell>
      </root>
    </mxGraphModel>
  </diagram>
</mxfile>
